# Blender v2.79 (sub 0) OBJ File: ''
# www.blender.org
mtllib garage_n_driveway.mtl
o Cube
v 5.000000 0.000000 -2.000000
v 5.000000 0.000000 2.000000
v 1.000000 0.000000 2.000000
v 1.000001 0.000000 -2.000001
v 5.000001 4.000000 -1.999999
v 4.999999 4.000000 2.000001
v 0.999999 4.000000 1.999999
v 1.000000 4.000000 -2.000000
v 5.000000 0.000000 0.000000
v 3.000000 0.000000 -2.000000
v 5.000000 2.000000 -1.999999
v 3.000000 0.000000 6.000000
v 4.999999 2.000000 2.000000
v 1.000000 0.000000 -0.000001
v 1.000000 2.000000 2.000000
v 1.000000 2.000000 -2.000000
v 5.000000 4.000000 0.000001
v 3.000000 4.000000 -2.000000
v 2.999999 4.000000 2.000000
v 1.000000 4.000000 -0.000000
v 3.000000 2.000000 -2.000000
v 1.000000 2.000000 -0.000000
v 5.000000 2.000000 0.000001
v 3.000000 4.000000 0.000000
v 3.000000 0.000000 -0.000000
v 5.000000 0.000000 1.000000
v 2.000000 0.000000 -2.000000
v 5.000001 3.000000 -1.999999
v 2.000000 0.000000 6.000000
v 4.999999 3.000000 2.000001
v 1.000000 0.000000 -1.000001
v 1.000000 3.000000 1.999999
v 1.000000 3.000000 -2.000000
v 4.999999 4.000000 1.000001
v 2.000000 4.000000 -2.000000
v 1.999999 4.000000 2.000000
v 1.000000 4.000000 -1.000000
v 5.000000 0.000000 -1.000000
v 4.000000 0.000000 -2.000000
v 5.000000 1.000000 -2.000000
v 4.000000 0.000000 6.000000
v 5.000000 1.000000 2.000000
v 1.000000 0.000000 1.000000
v 1.000000 1.000000 2.000000
v 1.000001 1.000000 -2.000000
v 5.000000 4.000000 -0.999999
v 4.000001 4.000000 -1.999999
v 3.999999 4.000000 2.000001
v 1.000000 4.000000 0.999999
v 2.000000 2.000000 -2.000000
v 4.000000 2.000000 -2.000000
v 3.000000 3.000000 -2.000000
v 3.000000 1.000000 -2.000000
v 1.000000 2.000000 -1.000000
v 1.000000 2.000000 1.000000
v 1.000000 1.000000 -0.000001
v 1.000000 3.000000 -0.000000
v 5.000000 2.000000 1.000000
v 5.000000 2.000000 -0.999999
v 5.000000 1.000000 0.000000
v 5.000000 3.000000 0.000001
v 2.999999 4.000000 1.000000
v 3.000000 4.000000 -1.000000
v 4.000000 4.000000 0.000001
v 2.000000 4.000000 0.000000
v 2.000000 0.000000 -0.000000
v 4.000000 0.000000 -0.000000
v 3.000000 0.000000 -1.000000
v 3.000000 0.000000 1.000000
v 4.000000 0.000000 1.000000
v 4.000000 0.000000 -1.000000
v 2.000000 0.000000 -1.000000
v 2.000000 4.000000 -1.000000
v 4.000000 4.000000 -0.999999
v 3.999999 4.000000 1.000001
v 5.000000 3.000000 -0.999999
v 5.000000 1.000000 -1.000000
v 5.000000 1.000000 1.000000
v 1.000000 3.000000 1.000000
v 1.000000 1.000000 1.000000
v 1.000000 1.000000 -1.000000
v 4.000000 1.000000 -2.000000
v 4.000000 3.000000 -2.000000
v 2.000000 3.000000 -2.000000
v 2.000000 1.000000 -2.000000
v 1.000000 3.000000 -1.000000
v 5.000000 3.000000 1.000001
v 1.999999 4.000000 1.000000
v 2.000000 0.000000 1.000000
v 5.000000 0.000000 1.500000
v 1.500001 0.000000 -2.000000
v 5.000001 3.500000 -1.999999
v 1.500000 0.000000 6.000000
v 4.999999 3.500000 2.000001
v 1.000001 0.000000 -1.500001
v 1.000000 3.500000 1.999999
v 1.000000 3.500000 -2.000000
v 4.999999 4.000000 1.500001
v 1.500000 4.000000 -2.000000
v 1.499999 4.000000 2.000000
v 1.000000 4.000000 -1.500000
v 5.000000 0.000000 -0.500000
v 3.500000 0.000000 -2.000000
v 5.000000 1.500000 -2.000000
v 3.500000 0.000000 6.000000
v 5.000000 1.500000 2.000000
v 1.000000 0.000000 0.499999
v 1.000000 1.500000 2.000000
v 1.000000 1.500000 -2.000000
v 5.000000 4.000000 -0.499999
v 3.500000 4.000000 -1.999999
v 3.499999 4.000000 2.000000
v 1.000000 4.000000 0.500000
v 1.500000 2.000000 -2.000000
v 3.500000 2.000000 -2.000000
v 3.000000 3.500000 -2.000000
v 3.000000 1.500000 -2.000000
v 1.000000 2.000000 -1.500000
v 1.000000 2.000000 0.500000
v 1.000000 0.500000 -0.000001
v 1.000000 2.500000 -0.000000
v 1.500000 2.000000 2.000000
v 5.000000 2.000000 1.500000
v 5.000000 2.000000 -0.499999
v 5.000000 0.500000 0.000000
v 5.000000 2.500000 0.000001
v 2.999999 4.000000 1.500000
v 3.000000 4.000000 -0.500000
v 4.500000 4.000000 0.000001
v 2.500000 4.000000 0.000000
v 1.500000 0.000000 -0.000001
v 3.500000 0.000000 -0.000000
v 3.000000 0.000000 -1.500000
v 3.000000 0.000000 0.500000
v 5.000000 0.000000 0.500000
v 2.500000 0.000000 -2.000000
v 5.000000 2.500000 -1.999999
v 2.500000 0.000000 6.000000
v 4.999999 2.500000 2.000001
v 1.000000 0.000000 -0.500001
v 1.000000 2.500000 2.000000
v 1.000000 2.500000 -2.000000
v 5.000000 4.000000 0.500001
v 2.500000 4.000000 -2.000000
v 2.499999 4.000000 2.000000
v 1.000000 4.000000 -0.500000
v 5.000000 0.000000 -1.500000
v 4.500000 0.000000 -2.000000
v 5.000000 0.500000 -2.000000
v 4.500000 0.000000 6.000000
v 5.000000 0.500000 2.000000
v 1.000000 0.000000 1.500000
v 1.000000 0.500000 2.000000
v 1.000001 0.500000 -2.000000
v 5.000001 4.000000 -1.499999
v 4.500001 4.000000 -1.999999
v 4.499999 4.000000 2.000001
v 1.000000 4.000000 1.499999
v 2.500000 2.000000 -2.000000
v 4.500000 2.000000 -2.000000
v 3.000000 2.500000 -2.000000
v 3.000000 0.500000 -2.000000
v 1.000000 2.000000 -0.500000
v 1.000000 2.000000 1.500000
v 1.000000 1.500000 -0.000001
v 1.000000 3.500000 -0.000000
v 4.499999 2.000000 2.000000
v 2.999999 3.500000 2.000000
v 5.000000 2.000000 0.500001
v 5.000000 2.000000 -1.499999
v 5.000000 1.500000 0.000000
v 5.000000 3.500000 0.000001
v 3.000000 4.000000 0.500000
v 3.000000 4.000000 -1.500000
v 3.500000 4.000000 0.000001
v 1.500000 4.000000 -0.000000
v 2.500000 0.000000 -0.000000
v 4.500000 0.000000 0.000000
v 3.000000 0.000000 -0.500000
v 3.000000 0.000000 5.500000
v 3.500000 0.000000 1.000000
v 4.500000 0.000000 1.000000
v 4.000000 0.000000 0.500000
v 4.000000 0.000000 5.500000
v 3.500000 0.000000 -1.000000
v 4.500000 0.000000 -1.000000
v 4.000000 0.000000 -1.500000
v 4.000000 0.000000 -0.500000
v 1.500000 0.000000 -1.000000
v 2.500000 0.000000 -1.000000
v 2.000000 0.000000 -1.500000
v 2.000000 0.000000 -0.500000
v 2.000000 4.000000 -0.500000
v 2.000000 4.000000 -1.500000
v 2.500000 4.000000 -1.000000
v 1.500000 4.000000 -1.000000
v 4.000000 4.000000 -0.499999
v 4.000000 4.000000 -1.499999
v 4.500000 4.000000 -0.999999
v 3.500000 4.000000 -0.999999
v 3.999999 4.000000 1.500001
v 4.000000 4.000000 0.500001
v 4.499999 4.000000 1.000001
v 3.499999 4.000000 1.000000
v 5.000000 3.000000 -0.499999
v 5.000000 3.000000 -1.499999
v 5.000000 2.500000 -0.999999
v 5.000000 3.500000 -0.999999
v 5.000000 1.000000 -0.500000
v 5.000000 1.000000 -1.500000
v 5.000000 0.500000 -1.000000
v 5.000000 1.500000 -1.000000
v 5.000000 1.000000 1.500000
v 5.000000 1.000000 0.500000
v 5.000000 0.500000 1.000000
v 5.000000 1.500000 1.000000
v 4.499999 3.000000 2.000001
v 3.999999 3.500000 2.000000
v 4.500000 1.000000 2.000000
v 1.500000 1.000000 2.000000
v 1.000000 3.000000 0.500000
v 1.000000 3.000000 1.500000
v 1.000000 2.500000 1.000000
v 1.000000 3.500000 1.000000
v 1.000000 1.000000 0.500000
v 1.000000 1.000000 1.500000
v 1.000000 0.500000 1.000000
v 1.000000 1.500000 1.000000
v 1.000000 1.000000 -1.500000
v 1.000000 1.000000 -0.500000
v 1.000000 0.500000 -1.000000
v 1.000000 1.500000 -1.000000
v 3.500000 1.000000 -2.000000
v 4.500000 1.000000 -2.000000
v 4.000000 1.500000 -2.000000
v 4.000000 0.500000 -2.000000
v 3.500000 3.000000 -2.000000
v 4.500001 3.000000 -1.999999
v 4.000001 3.500000 -1.999999
v 4.000000 2.500000 -2.000000
v 1.500000 3.000000 -2.000000
v 2.500000 3.000000 -2.000000
v 2.000000 3.500000 -2.000000
v 2.000000 2.500000 -2.000000
v 1.500001 1.000000 -2.000000
v 2.500000 1.000000 -2.000000
v 2.000000 1.500000 -2.000000
v 2.000000 0.500000 -2.000000
v 1.000000 3.000000 -1.500000
v 1.000000 3.000000 -0.500000
v 1.000000 2.500000 -1.000000
v 1.000000 3.500000 -1.000000
v 1.499999 3.000000 2.000000
v 1.999999 3.500000 2.000000
v 4.999999 3.000000 1.500001
v 5.000000 3.000000 0.500001
v 5.000000 2.500000 1.000001
v 4.999999 3.500000 1.000001
v 1.999999 4.000000 1.500000
v 2.000000 4.000000 0.500000
v 2.499999 4.000000 1.000000
v 1.500000 4.000000 1.000000
v 1.500000 0.000000 1.000000
v 2.500000 0.000000 1.000000
v 2.000000 0.000000 0.500000
v 2.000000 0.000000 5.500000
v 2.500000 0.000000 5.500000
v 2.500000 0.000000 0.500000
v 1.500000 0.000000 0.500000
v 1.500000 4.000000 0.500000
v 2.500000 4.000000 0.500000
v 2.499999 4.000000 1.500000
v 5.000000 3.500000 0.500001
v 5.000000 2.500000 0.500001
v 4.999999 2.500000 1.500001
v 2.499999 3.500000 2.000000
v 1.500000 2.500000 2.000000
v 1.000000 3.500000 -0.500000
v 1.000000 2.500000 -0.500000
v 1.000000 2.500000 -1.500000
v 2.500000 0.500000 -2.000000
v 2.500000 1.500000 -2.000000
v 1.500000 1.500000 -2.000000
v 2.500000 2.500000 -2.000000
v 2.500000 3.500000 -2.000000
v 1.500000 3.500000 -2.000000
v 4.500000 2.500000 -2.000000
v 4.500001 3.500000 -1.999999
v 3.500000 3.500000 -2.000000
v 4.500000 0.500000 -2.000000
v 4.500000 1.500000 -2.000000
v 3.500000 1.500000 -2.000000
v 1.000000 1.500000 -0.500000
v 1.000000 0.500000 -0.500000
v 1.000001 0.500000 -1.500000
v 1.000000 1.500000 1.500000
v 1.000000 0.500000 1.500000
v 1.000000 0.500000 0.499999
v 1.000000 3.500000 1.499999
v 1.000000 2.500000 1.500000
v 1.000000 2.500000 0.500000
v 1.500000 0.500000 2.000000
v 4.500000 1.500000 2.000000
v 4.500000 0.500000 2.000000
v 4.499999 3.500000 2.000001
v 4.499999 2.500000 2.000000
v 5.000000 1.500000 0.500000
v 5.000000 0.500000 0.500000
v 5.000000 0.500000 1.500000
v 5.000000 1.500000 -1.500000
v 5.000000 0.500000 -1.500000
v 5.000000 0.500000 -0.500000
v 5.000001 3.500000 -1.499999
v 5.000000 2.500000 -1.499999
v 5.000000 2.500000 -0.499999
v 3.500000 4.000000 0.500000
v 4.500000 4.000000 0.500001
v 4.499999 4.000000 1.500001
v 3.500000 4.000000 -1.499999
v 4.500000 4.000000 -1.499999
v 4.500000 4.000000 -0.499999
v 1.500000 4.000000 -1.500000
v 2.500000 4.000000 -1.500000
v 2.500000 4.000000 -0.500000
v 2.500000 0.000000 -0.500000
v 2.500000 0.000000 -1.500000
v 1.500000 0.000000 -1.500001
v 4.500000 0.000000 -0.500000
v 4.500000 0.000000 -1.500000
v 3.500000 0.000000 -1.500000
v 4.500000 0.000000 5.500000
v 4.500000 0.000000 0.500000
v 3.500000 0.000000 0.500000
v 3.500000 0.000000 5.500000
v 3.500000 0.000000 -0.500000
v 1.500000 0.000000 -0.500000
v 1.500000 4.000000 -0.500000
v 3.500000 4.000000 -0.499999
v 3.499999 4.000000 1.500000
v 5.000000 3.500000 -0.499999
v 5.000000 1.500000 -0.500000
v 5.000000 1.500000 1.500000
v 3.499999 3.500000 2.000000
v 1.500000 1.500000 2.000000
v 1.000000 3.500000 0.500000
v 1.000000 1.500000 0.500000
v 1.000000 1.500000 -1.500000
v 3.500000 0.500000 -2.000000
v 3.500000 2.500000 -2.000000
v 1.500000 2.500000 -2.000000
v 1.500001 0.500000 -2.000000
v 1.000000 3.500000 -1.500000
v 1.499999 3.500000 2.000000
v 4.999999 3.500000 1.500001
v 1.499999 4.000000 1.500000
v 1.500000 0.000000 5.500000
vn 0.0000 -1.0000 0.0000
vn 0.0000 1.0000 0.0000
vn 1.0000 -0.0000 0.0000
vn -0.0000 -0.0000 1.0000
vn -1.0000 -0.0000 -0.0000
vn 0.0000 0.0000 -1.0000
vn -0.6963 0.6963 0.1741
vn 0.6963 0.6963 0.1741
usemtl GarageOut
s off
f 356//1 93//1 3//1 152//1
f 355//2 158//2 7//2 100//2
f 354//3 98//3 6//3 94//3
f 353//4 100//4 7//4 96//4
f 352//5 101//5 8//5 97//5
f 351//6 91//6 4//6 154//6
f 350//6 114//6 16//6 142//6
f 349//6 115//6 21//6 161//6
f 348//6 103//6 10//6 162//6
f 347//5 118//5 16//5 109//5
f 346//5 119//5 22//5 165//5
f 345//5 113//5 20//5 166//5
f 344//4 122//4 15//4 108//4
f 343//4 112//4 19//4 168//4
f 342//3 123//3 13//3 106//3
f 341//3 124//3 23//3 171//3
f 340//3 110//3 17//3 172//3
f 339//2 127//2 19//2 112//2
f 338//2 128//2 24//2 175//2
f 337//2 146//2 20//2 176//2
f 324//2 193//2 65//2 130//2
f 323//2 194//2 73//2 195//2
f 322//2 101//2 37//2 196//2
f 321//2 197//2 64//2 129//2
f 320//2 198//2 74//2 199//2
f 319//2 174//2 63//2 200//2
f 318//2 201//2 48//2 157//2
f 317//2 202//2 75//2 203//2
f 316//2 173//2 62//2 204//2
f 315//3 205//3 61//3 126//3
f 314//3 206//3 76//3 207//3
f 313//3 155//3 46//3 208//3
f 312//3 209//3 60//3 125//3
f 311//3 210//3 77//3 211//3
f 310//3 170//3 59//3 212//3
f 309//3 213//3 42//3 151//3
f 308//3 214//3 78//3 215//3
f 307//3 169//3 58//3 216//3
f 305//4 157//4 48//4 218//4
f 302//4 220//4 44//4 153//4
f 301//5 221//5 57//5 121//5
f 300//5 222//5 79//5 223//5
f 299//5 158//5 49//5 224//5
f 298//5 225//5 56//5 120//5
f 297//5 226//5 80//5 227//5
f 296//5 164//5 55//5 228//5
f 295//5 229//5 45//5 154//5
f 294//5 230//5 81//5 231//5
f 293//5 163//5 54//5 232//5
f 292//6 233//6 53//6 117//6
f 291//6 234//6 82//6 235//6
f 290//6 148//6 39//6 236//6
f 289//6 237//6 52//6 116//6
f 288//6 238//6 83//6 239//6
f 287//6 160//6 51//6 240//6
f 286//6 241//6 33//6 97//6
f 285//6 242//6 84//6 243//6
f 284//6 159//6 50//6 244//6
f 283//6 245//6 45//6 109//6
f 282//6 246//6 85//6 247//6
f 281//6 136//6 27//6 248//6
f 280//5 249//5 33//5 142//5
f 279//5 250//5 86//5 251//5
f 278//5 146//5 37//5 252//5
f 277//4 253//4 32//4 141//4
f 276//4 145//4 36//4 254//4
f 275//3 255//3 30//3 139//3
f 274//3 256//3 87//3 257//3
f 273//3 143//3 34//3 258//3
f 272//2 259//2 36//2 145//2
f 271//2 260//2 88//2 261//2
f 270//2 113//2 49//2 262//2
f 260//2 270//2 262//2 88//2
f 65//2 176//2 270//2 260//2
f 176//2 20//2 113//2 270//2
f 173//2 271//2 261//2 62//2
f 24//2 130//2 271//2 173//2
f 130//2 65//2 260//2 271//2
f 127//2 272//2 145//2 19//2
f 62//2 261//2 272//2 127//2
f 261//2 88//2 259//2 272//2
f 256//3 273//3 258//3 87//3
f 61//3 172//3 273//3 256//3
f 172//3 17//3 143//3 273//3
f 169//3 274//3 257//3 58//3
f 23//3 126//3 274//3 169//3
f 126//3 61//3 256//3 274//3
f 123//3 275//3 139//3 13//3
f 58//3 257//3 275//3 123//3
f 257//3 87//3 255//3 275//3
f 168//4 19//4 145//4 276//4
f 122//4 277//4 141//4 15//4
f 250//5 278//5 252//5 86//5
f 57//5 166//5 278//5 250//5
f 166//5 20//5 146//5 278//5
f 163//5 279//5 251//5 54//5
f 22//5 121//5 279//5 163//5
f 121//5 57//5 250//5 279//5
f 118//5 280//5 142//5 16//5
f 54//5 251//5 280//5 118//5
f 251//5 86//5 249//5 280//5
f 246//6 281//6 248//6 85//6
f 53//6 162//6 281//6 246//6
f 162//6 10//6 136//6 281//6
f 159//6 282//6 247//6 50//6
f 21//6 117//6 282//6 159//6
f 117//6 53//6 246//6 282//6
f 114//6 283//6 109//6 16//6
f 50//6 247//6 283//6 114//6
f 247//6 85//6 245//6 283//6
f 242//6 284//6 244//6 84//6
f 52//6 161//6 284//6 242//6
f 161//6 21//6 159//6 284//6
f 144//6 285//6 243//6 35//6
f 18//6 116//6 285//6 144//6
f 116//6 52//6 242//6 285//6
f 99//6 286//6 97//6 8//6
f 35//6 243//6 286//6 99//6
f 243//6 84//6 241//6 286//6
f 238//6 287//6 240//6 83//6
f 28//6 137//6 287//6 238//6
f 137//6 11//6 160//6 287//6
f 156//6 288//6 239//6 47//6
f 5//6 92//6 288//6 156//6
f 92//6 28//6 238//6 288//6
f 111//6 289//6 116//6 18//6
f 47//6 239//6 289//6 111//6
f 239//6 83//6 237//6 289//6
f 234//6 290//6 236//6 82//6
f 40//6 149//6 290//6 234//6
f 149//6 1//6 148//6 290//6
f 160//6 291//6 235//6 51//6
f 11//6 104//6 291//6 160//6
f 104//6 40//6 234//6 291//6
f 115//6 292//6 117//6 21//6
f 51//6 235//6 292//6 115//6
f 235//6 82//6 233//6 292//6
f 230//5 293//5 232//5 81//5
f 56//5 165//5 293//5 230//5
f 165//5 22//5 163//5 293//5
f 140//5 294//5 231//5 31//5
f 14//5 120//5 294//5 140//5
f 120//5 56//5 230//5 294//5
f 95//5 295//5 154//5 4//5
f 31//5 231//5 295//5 95//5
f 231//5 81//5 229//5 295//5
f 226//5 296//5 228//5 80//5
f 44//5 108//5 296//5 226//5
f 108//5 15//5 164//5 296//5
f 152//5 297//5 227//5 43//5
f 3//5 153//5 297//5 152//5
f 153//5 44//5 226//5 297//5
f 107//5 298//5 120//5 14//5
f 43//5 227//5 298//5 107//5
f 227//5 80//5 225//5 298//5
f 222//5 299//5 224//5 79//5
f 32//5 96//5 299//5 222//5
f 96//5 7//5 158//5 299//5
f 164//5 300//5 223//5 55//5
f 15//5 141//5 300//5 164//5
f 141//5 32//5 222//5 300//5
f 119//5 301//5 121//5 22//5
f 55//5 223//5 301//5 119//5
f 223//5 79//5 221//5 301//5
f 42//4 106//4 303//4 219//4
f 106//4 13//4 167//4 303//4
f 151//4 42//4 219//4 304//4
f 30//4 94//4 305//4 217//4
f 94//4 6//4 157//4 305//4
f 13//4 139//4 306//4 167//4
f 139//4 30//4 217//4 306//4
f 214//3 307//3 216//3 78//3
f 60//3 171//3 307//3 214//3
f 171//3 23//3 169//3 307//3
f 135//3 308//3 215//3 26//3
f 9//3 125//3 308//3 135//3
f 125//3 60//3 214//3 308//3
f 90//3 309//3 151//3 2//3
f 26//3 215//3 309//3 90//3
f 215//3 78//3 213//3 309//3
f 210//3 310//3 212//3 77//3
f 40//3 104//3 310//3 210//3
f 104//3 11//3 170//3 310//3
f 147//3 311//3 211//3 38//3
f 1//3 149//3 311//3 147//3
f 149//3 40//3 210//3 311//3
f 102//3 312//3 125//3 9//3
f 38//3 211//3 312//3 102//3
f 211//3 77//3 209//3 312//3
f 206//3 313//3 208//3 76//3
f 28//3 92//3 313//3 206//3
f 92//3 5//3 155//3 313//3
f 170//3 314//3 207//3 59//3
f 11//3 137//3 314//3 170//3
f 137//3 28//3 206//3 314//3
f 124//3 315//3 126//3 23//3
f 59//3 207//3 315//3 124//3
f 207//3 76//3 205//3 315//3
f 202//2 316//2 204//2 75//2
f 64//2 175//2 316//2 202//2
f 175//2 24//2 173//2 316//2
f 143//2 317//2 203//2 34//2
f 17//2 129//2 317//2 143//2
f 129//2 64//2 202//2 317//2
f 98//2 318//2 157//2 6//2
f 34//2 203//2 318//2 98//2
f 203//2 75//2 201//2 318//2
f 198//2 319//2 200//2 74//2
f 47//2 111//2 319//2 198//2
f 111//2 18//2 174//2 319//2
f 155//2 320//2 199//2 46//2
f 5//2 156//2 320//2 155//2
f 156//2 47//2 198//2 320//2
f 110//2 321//2 129//2 17//2
f 46//2 199//2 321//2 110//2
f 199//2 74//2 197//2 321//2
f 194//2 322//2 196//2 73//2
f 35//2 99//2 322//2 194//2
f 99//2 8//2 101//2 322//2
f 174//2 323//2 195//2 63//2
f 18//2 144//2 323//2 174//2
f 144//2 35//2 194//2 323//2
f 128//2 324//2 130//2 24//2
f 63//2 195//2 324//2 128//2
f 195//2 73//2 193//2 324//2
f 90//1 2//1 150//1 331//1
f 193//2 337//2 176//2 65//2
f 73//2 196//2 337//2 193//2
f 196//2 37//2 146//2 337//2
f 197//2 338//2 175//2 64//2
f 74//2 200//2 338//2 197//2
f 200//2 63//2 128//2 338//2
f 201//2 339//2 112//2 48//2
f 75//2 204//2 339//2 201//2
f 204//2 62//2 127//2 339//2
f 205//3 340//3 172//3 61//3
f 76//3 208//3 340//3 205//3
f 208//3 46//3 110//3 340//3
f 209//3 341//3 171//3 60//3
f 77//3 212//3 341//3 209//3
f 212//3 59//3 124//3 341//3
f 213//3 342//3 106//3 42//3
f 78//3 216//3 342//3 213//3
f 216//3 58//3 123//3 342//3
f 218//4 48//4 112//4 343//4
f 220//4 344//4 108//4 44//4
f 221//5 345//5 166//5 57//5
f 79//5 224//5 345//5 221//5
f 224//5 49//5 113//5 345//5
f 225//5 346//5 165//5 56//5
f 80//5 228//5 346//5 225//5
f 228//5 55//5 119//5 346//5
f 229//5 347//5 109//5 45//5
f 81//5 232//5 347//5 229//5
f 232//5 54//5 118//5 347//5
f 233//6 348//6 162//6 53//6
f 82//6 236//6 348//6 233//6
f 236//6 39//6 103//6 348//6
f 237//6 349//6 161//6 52//6
f 83//6 240//6 349//6 237//6
f 240//6 51//6 115//6 349//6
f 241//6 350//6 142//6 33//6
f 84//6 244//6 350//6 241//6
f 244//6 50//6 114//6 350//6
f 245//6 351//6 154//6 45//6
f 85//6 248//6 351//6 245//6
f 248//6 27//6 91//6 351//6
f 249//5 352//5 97//5 33//5
f 86//5 252//5 352//5 249//5
f 252//5 37//5 101//5 352//5
f 253//4 353//4 96//4 32//4
f 254//4 36//4 100//4 353//4
f 255//3 354//3 94//3 30//3
f 87//3 258//3 354//3 255//3
f 258//3 34//3 98//3 354//3
f 259//2 355//2 100//2 36//2
f 88//2 262//2 355//2 259//2
f 262//2 49//2 158//2 355//2
usemtl DriveWay
f 336//1 131//1 14//1 140//1
f 335//1 132//1 25//1 179//1
f 334//1 105//1 12//1 180//1
f 333//1 181//1 69//1 134//1
f 332//1 182//1 70//1 183//1
f 331//1 150//1 41//1 184//1
f 330//1 185//1 68//1 133//1
f 329//1 186//1 71//1 187//1
f 328//1 178//1 67//1 188//1
f 327//1 189//1 31//1 95//1
f 326//1 190//1 72//1 191//1
f 325//1 177//1 66//1 192//1
f 269//1 263//1 43//1 107//1
f 268//1 264//1 89//1 265//1
f 267//1 138//1 29//1 266//1
f 264//1 267//1 266//1 89//1
f 69//1 180//1 267//1 264//1
f 180//1 12//1 138//1 267//1
f 177//1 268//1 265//1 66//1
f 25//1 134//1 268//1 177//1
f 134//1 69//1 264//1 268//1
f 131//1 269//1 107//1 14//1
f 66//1 265//1 269//1 131//1
f 265//1 89//1 263//1 269//1
f 93//7 302//7 153//7 3//7
f 2//8 151//8 304//8 150//8
f 190//1 325//1 192//1 72//1
f 68//1 179//1 325//1 190//1
f 179//1 25//1 177//1 325//1
f 136//1 326//1 191//1 27//1
f 10//1 133//1 326//1 136//1
f 133//1 68//1 190//1 326//1
f 91//1 327//1 95//1 4//1
f 27//1 191//1 327//1 91//1
f 191//1 72//1 189//1 327//1
f 186//1 328//1 188//1 71//1
f 38//1 102//1 328//1 186//1
f 102//1 9//1 178//1 328//1
f 148//1 329//1 187//1 39//1
f 1//1 147//1 329//1 148//1
f 147//1 38//1 186//1 329//1
f 103//1 330//1 133//1 10//1
f 39//1 187//1 330//1 103//1
f 187//1 71//1 185//1 330//1
f 182//1 331//1 184//1 70//1
f 26//1 90//1 331//1 182//1
f 178//1 332//1 183//1 67//1
f 9//1 135//1 332//1 178//1
f 135//1 26//1 182//1 332//1
f 132//1 333//1 134//1 25//1
f 67//1 183//1 333//1 132//1
f 183//1 70//1 181//1 333//1
f 181//1 334//1 180//1 69//1
f 70//1 184//1 334//1 181//1
f 184//1 41//1 105//1 334//1
f 185//1 335//1 179//1 68//1
f 71//1 188//1 335//1 185//1
f 188//1 67//1 132//1 335//1
f 189//1 336//1 140//1 31//1
f 72//1 192//1 336//1 189//1
f 192//1 66//1 131//1 336//1
f 263//1 356//1 152//1 43//1
f 89//1 266//1 356//1 263//1
f 266//1 29//1 93//1 356//1
