# Blender v2.79 (sub 0) OBJ File: 'house.blend'
# www.blender.org
mtllib house.mtl
o Cube
v 3.000000 0.000000 3.000000
v -3.000000 0.000000 3.000000
v -3.000000 0.000000 -3.000000
v 3.000001 0.000000 -2.999999
v 2.999999 6.000000 3.000001
v -3.000002 6.000000 2.999998
v -2.999999 6.000000 -3.000001
v 3.000000 6.000000 -3.000000
v 4.499999 6.000000 4.500001
v -4.500002 6.000000 4.499998
v 4.500000 6.000000 -4.500000
v -4.499999 6.000000 -4.500000
v -0.000001 9.000000 -0.000000
v 0.000000 0.000000 2.000000
v 3.000000 0.000000 0.000000
v 3.000000 3.000000 3.000000
v -3.000000 0.000000 -0.000000
v -3.000001 3.000000 2.999999
v 0.000000 0.000000 -3.000000
v -2.999999 3.000000 -3.000000
v 3.000000 3.000000 -2.999999
v -0.000001 6.000000 3.000000
v 2.999999 6.000000 0.000001
v -3.000000 6.000000 -0.000001
v 0.000000 6.000000 -3.000000
v 3.000000 3.000000 0.000000
v 0.000000 3.000000 -3.000000
v -3.000000 3.000000 -0.000001
v -0.000000 3.000000 3.000000
v 0.000000 0.000000 0.000000
v -1.500000 0.000000 3.000000
v 3.000001 0.000000 -1.499999
v 2.999999 4.500000 3.000001
v -3.000000 0.000000 -1.500000
v -3.000001 4.500000 2.999999
v 1.500001 0.000000 -2.999999
v -2.999999 4.500000 -3.000001
v 3.000000 4.500000 -3.000000
v -1.500002 6.000000 2.999999
v 3.000000 6.000000 -1.500000
v -3.000000 6.000000 -1.500001
v 1.500000 6.000000 -3.000000
v 1.500000 0.000000 3.000000
v 3.000000 0.000000 1.500000
v 3.000000 1.500000 3.000000
v -3.000000 0.000000 1.500000
v -3.000000 1.500000 3.000000
v -1.500000 0.000000 -3.000000
v -2.999999 1.500000 -3.000000
v 3.000000 1.500000 -2.999999
v 1.499999 6.000000 3.000000
v 2.999999 6.000000 1.500001
v -3.000001 6.000000 1.499999
v -1.500000 6.000000 -3.000000
v 3.000000 3.000000 -1.499999
v 3.000000 3.000000 1.500000
v 3.000000 4.500000 0.000001
v 3.000000 1.500000 0.000000
v 1.500000 3.000000 -3.000000
v -1.499999 3.000000 -3.000000
v 0.000000 1.500000 -3.000000
v 0.000000 4.500000 -3.000000
v -3.000000 3.000000 -1.500001
v -3.000000 3.000000 1.499999
v -3.000000 1.500000 -0.000000
v -3.000000 4.500000 -0.000001
v -1.500001 3.000000 3.000000
v 1.500000 3.000000 3.000000
v -0.000000 1.500000 2.000000
v -0.000001 4.500000 3.000000
v 0.000000 0.000000 -1.500000
v 0.000000 0.000000 1.500000
v 1.500000 0.000000 0.000000
v -1.500000 0.000000 0.000000
v -1.500000 0.000000 1.500000
v 1.500000 0.000000 1.500000
v 1.500000 0.000000 -1.500000
v 1.500000 1.500000 3.000000
v -1.500000 1.500000 3.000000
v -1.500000 0.000000 -1.500000
v -2.250000 0.000000 3.000000
v 3.000001 0.000000 -2.249999
v 2.999999 5.250000 3.000001
v -3.000000 0.000000 -2.250000
v -3.000001 5.250000 2.999999
v 2.250001 0.000000 -2.999999
v -2.999999 5.250000 -3.000001
v 3.000000 5.250000 -3.000000
v -2.250002 6.000000 2.999999
v 3.000000 6.000000 -2.250000
v -3.000000 6.000000 -2.250001
v 2.250000 6.000000 -3.000000
v 0.750000 0.000000 2.000000
v 3.000000 0.000000 0.750000
v 3.000000 2.250000 3.000000
v -3.000000 0.000000 0.750000
v -3.000000 2.250000 3.000000
v -0.750000 0.000000 -3.000000
v -2.999999 2.250000 -3.000000
v 3.000000 2.250000 -2.999999
v 0.749999 6.000000 3.000000
v 2.999999 6.000000 0.750001
v -3.000001 6.000000 0.749999
v -0.750000 6.000000 -3.000000
v 3.000000 3.000000 -2.249999
v 3.000000 3.000000 0.750000
v 3.000000 5.250000 0.000001
v 3.000000 2.250000 0.000000
v 2.250000 3.000000 -3.000000
v -0.749999 3.000000 -3.000000
v 0.000000 0.750000 -3.000000
v 0.000000 3.750000 -3.000000
v -3.000000 3.000000 -2.250000
v -3.000000 3.000000 0.749999
v -3.000000 0.750000 -0.000000
v -3.000000 3.750000 -0.000001
v -2.250001 3.000000 3.000000
v 0.750000 3.000000 3.000000
v -0.000000 0.750000 2.000000
v -0.000001 3.750000 3.000000
v 0.000000 0.000000 -2.250000
v 0.000000 0.000000 0.750000
v 2.250000 0.000000 0.000000
v -0.750000 0.000000 0.000000
v -0.750000 0.000000 2.000000
v 3.000000 0.000000 -0.750000
v 2.999999 3.750000 3.000001
v -3.000000 0.000000 -0.750000
v -3.000001 3.750000 2.999999
v 0.750001 0.000000 -2.999999
v -2.999999 3.750000 -3.000001
v 3.000000 3.750000 -2.999999
v -0.750001 6.000000 3.000000
v 3.000000 6.000000 -0.749999
v -3.000000 6.000000 -0.750001
v 0.750000 6.000000 -3.000000
v 2.250000 0.000000 3.000000
v 3.000000 0.000000 2.250000
v 3.000000 0.750000 3.000000
v -3.000000 0.000000 2.250000
v -3.000000 0.750000 3.000000
v -2.250000 0.000000 -3.000000
v -2.999999 0.750000 -3.000000
v 3.000001 0.750000 -2.999999
v 2.249999 6.000000 3.000001
v 2.999999 6.000000 2.250001
v -3.000001 6.000000 2.249998
v -2.249999 6.000000 -3.000000
v 3.000000 3.000000 -0.749999
v 3.000000 3.000000 2.250000
v 3.000000 3.750000 0.000001
v 3.000000 0.750000 0.000000
v 0.750000 3.000000 -3.000000
v -2.249999 3.000000 -3.000000
v 0.000000 2.250000 -3.000000
v 0.000000 5.250000 -3.000000
v -3.000000 3.000000 -0.750001
v -3.000000 3.000000 2.249999
v -3.000000 2.250000 -0.000001
v -3.000000 5.250000 -0.000001
v -0.750001 3.000000 3.000000
v 2.250000 3.000000 3.000000
v -0.000000 2.250000 2.000000
v -0.000001 5.250000 3.000000
v 0.000000 0.000000 -0.750000
v 0.000000 0.000000 2.250000
v 0.750000 0.000000 0.000000
v -2.250000 0.000000 0.000000
v -1.500000 0.000000 0.750000
v -1.500000 0.000000 2.250000
v -0.750000 0.000000 1.500000
v -2.250000 0.000000 1.500000
v 1.500000 0.000000 0.750000
v 1.500000 0.000000 2.250000
v 2.250000 0.000000 1.500000
v 0.750000 0.000000 1.500000
v 1.500001 0.000000 -2.249999
v 1.500000 0.000000 -0.750000
v 2.250001 0.000000 -1.499999
v 0.750000 0.000000 -1.500000
v 0.749999 4.500000 3.000000
v 2.249999 4.500000 3.000000
v 1.499999 3.750000 3.000000
v 1.499999 5.250000 3.000000
v 0.750000 1.500000 2.000000
v 2.250000 1.500000 3.000000
v 1.500000 0.750000 3.000000
v 1.500000 2.250000 3.000000
v -2.250000 1.500000 3.000000
v -0.750000 1.500000 2.000000
v -1.500000 0.750000 3.000000
v -1.500000 2.250000 3.000000
v -3.000000 4.500000 0.749999
v -3.000001 4.500000 2.249999
v -3.000001 3.750000 1.499999
v -3.000001 5.250000 1.499999
v -3.000000 1.500000 0.750000
v -3.000000 1.500000 2.250000
v -3.000000 0.750000 1.500000
v -3.000000 2.250000 1.500000
v -3.000000 1.500000 -2.250000
v -3.000000 1.500000 -0.750000
v -3.000000 0.750000 -1.500000
v -3.000000 2.250000 -1.500000
v -0.750000 4.500000 -3.000000
v -2.249999 4.500000 -3.000000
v -1.500000 3.750000 -3.000000
v -1.500000 5.250000 -3.000000
v -0.749999 1.500000 -3.000000
v -2.249999 1.500000 -3.000000
v -1.500000 0.750000 -3.000000
v -1.499999 2.250000 -3.000000
v 2.250000 1.500000 -3.000000
v 0.750000 1.500000 -3.000000
v 1.500000 0.750000 -2.999999
v 1.500000 2.250000 -3.000000
v 3.000000 1.500000 0.750000
v 3.000000 1.500000 2.250000
v 3.000000 2.250000 1.500000
v 3.000000 0.750000 1.500000
v 3.000000 4.500000 0.750001
v 2.999999 4.500000 2.250001
v 2.999999 5.250000 1.500001
v 3.000000 3.750000 1.500001
v 3.000000 4.500000 -2.250000
v 3.000000 4.500000 -0.749999
v 3.000000 5.250000 -1.500000
v 3.000000 3.750000 -1.499999
v 3.000000 1.500000 -2.249999
v 3.000000 1.500000 -0.750000
v 3.000000 2.250000 -1.499999
v 3.000000 0.750000 -1.499999
v 2.250000 4.500000 -3.000000
v 0.750000 4.500000 -3.000000
v 1.500000 3.750000 -3.000000
v 1.500000 5.250000 -3.000000
v -3.000000 4.500000 -2.250001
v -3.000000 4.500000 -0.750001
v -3.000000 3.750000 -1.500001
v -3.000000 5.250000 -1.500001
v -2.250001 4.500000 2.999999
v -0.750001 4.500000 3.000000
v -1.500001 3.750000 3.000000
v -1.500001 5.250000 2.999999
v -1.499999 0.000000 -2.250000
v -1.500000 0.000000 -0.750000
v -0.750000 0.000000 -1.500000
v -2.250000 0.000000 -1.500000
v -2.250000 0.000000 -0.750000
v -0.750000 0.000000 -0.750000
v -0.750000 0.000000 -2.250000
v -0.750001 5.250000 3.000000
v -0.750001 3.750000 3.000000
v -2.250001 3.750000 2.999999
v -3.000000 5.250000 -0.750001
v -3.000000 3.750000 -0.750001
v -3.000000 3.750000 -2.250001
v 0.750000 5.250000 -3.000000
v 0.750000 3.750000 -3.000000
v 2.250000 3.750000 -3.000000
v 3.000000 0.750000 -0.750000
v 3.000000 2.250000 -0.749999
v 3.000000 2.250000 -2.249999
v 3.000000 3.750000 -0.749999
v 3.000000 5.250000 -0.749999
v 3.000000 5.250000 -2.250000
v 3.000000 3.750000 2.250001
v 2.999999 5.250000 2.250001
v 2.999999 5.250000 0.750001
v 3.000000 0.750000 2.250000
v 3.000000 2.250000 2.250000
v 3.000000 2.250000 0.750000
v 0.750000 2.250000 -3.000000
v 0.750000 0.750000 -3.000000
v 2.250001 0.750000 -2.999999
v -2.249999 2.250000 -3.000000
v -2.249999 0.750000 -3.000000
v -0.750000 0.750000 -3.000000
v -2.249999 5.250000 -3.000000
v -2.249999 3.750000 -3.000000
v -0.750000 3.750000 -3.000000
v -3.000000 2.250000 -0.750001
v -3.000000 0.750000 -0.750000
v -3.000000 0.750000 -2.250000
v -3.000000 2.250000 2.250000
v -3.000000 0.750000 2.250000
v -3.000000 0.750000 0.750000
v -3.000001 5.250000 2.249999
v -3.000001 3.750000 2.249999
v -3.000000 3.750000 0.749999
v -0.750000 2.250000 2.000000
v -0.750000 0.750000 2.000000
v -2.250000 0.750000 3.000000
v 2.250000 2.250000 3.000000
v 2.250000 0.750000 3.000000
v 0.750000 0.750000 2.000000
v 2.249999 5.250000 3.000001
v 2.249999 3.750000 3.000000
v 0.749999 3.750000 3.000000
v 0.750000 0.000000 -0.750000
v 2.250000 0.000000 -0.750000
v 2.250001 0.000000 -2.249999
v 0.750000 0.000000 2.250000
v 2.250000 0.000000 2.250000
v 2.250000 0.000000 0.750000
v -2.250000 0.000000 2.250000
v -0.750000 0.000000 2.250000
v -0.750000 0.000000 0.750000
v -2.250000 0.000000 0.750000
v 0.750000 0.000000 0.750000
v 0.750000 0.000000 -2.250000
v 0.749999 5.250000 3.000000
v 0.750000 2.250000 2.000000
v -2.250000 2.250000 3.000000
v -3.000001 5.250000 0.749999
v -3.000000 2.250000 0.750000
v -3.000000 2.250000 -2.250000
v -0.750000 5.250000 -3.000000
v -0.749999 2.250000 -3.000000
v 2.250000 2.250000 -3.000000
v 3.000000 0.750000 0.750000
v 3.000000 3.750000 0.750001
v 3.000000 3.750000 -2.249999
v 3.000000 0.750000 -2.249999
v 2.250000 5.250000 -3.000000
v -3.000000 5.250000 -2.250001
v -2.250001 5.250000 2.999999
v -2.250000 0.000000 -2.250000
vn 0.0000 -1.0000 0.0000
vn -0.5547 0.8321 -0.0000
vn -0.0000 0.8321 0.5547
vn 0.0000 0.8321 -0.5547
vn 0.5547 0.8321 0.0000
vn 0.0000 1.0000 0.0000
vn 0.0000 0.0000 1.0000
vn -1.0000 0.0000 -0.0000
vn 0.0000 -0.0000 -1.0000
vn 1.0000 0.0000 0.0000
vn -0.0000 -0.8000 0.6000
vn 0.8000 0.0000 0.6000
vn 0.4851 -0.4851 0.7276
vn -0.8000 -0.0000 0.6000
vn -0.4851 -0.4851 0.7276
usemtl Roof
s off
f 328//1 84//1 3//1 142//1
f 7//1 91//1 41//1 135//1 24//1 103//1 53//1 147//1 6//1 10//1 12//1
f 12//2 10//2 13//2
f 6//1 89//1 39//1 133//1 22//1 101//1 51//1 145//1 5//1 9//1 10//1
f 8//1 92//1 42//1 136//1 25//1 104//1 54//1 148//1 7//1 12//1 11//1
f 5//1 146//1 52//1 102//1 23//1 134//1 40//1 90//1 8//1 11//1 9//1
f 10//3 9//3 13//3
f 11//4 12//4 13//4
f 9//5 11//5 13//5
f 311//1 121//1 19//1 130//1
f 310//1 122//1 30//1 167//1
f 309//1 96//1 17//1 168//1
f 308//1 169//1 74//1 124//1
f 307//1 170//1 75//1 171//1
f 306//1 140//1 46//1 172//1
f 305//1 173//1 73//1 123//1
f 304//1 174//1 76//1 175//1
f 303//1 166//1 72//1 176//1
f 302//1 177//1 36//1 86//1
f 301//1 178//1 77//1 179//1
f 300//1 165//1 71//1 180//1
f 251//1 245//1 48//1 98//1
f 250//1 246//1 80//1 247//1
f 249//1 128//1 34//1 248//1
f 246//1 249//1 248//1 80//1
f 74//1 168//1 249//1 246//1
f 168//1 17//1 128//1 249//1
f 165//1 250//1 247//1 71//1
f 30//1 124//1 250//1 165//1
f 124//1 74//1 246//1 250//1
f 121//1 251//1 98//1 19//1
f 71//1 247//1 251//1 121//1
f 247//1 80//1 245//1 251//1
f 178//1 300//1 180//1 77//1
f 73//1 167//1 300//1 178//1
f 167//1 30//1 165//1 300//1
f 126//1 301//1 179//1 32//1
f 15//1 123//1 301//1 126//1
f 123//1 73//1 178//1 301//1
f 82//1 302//1 86//1 4//1
f 32//1 179//1 302//1 82//1
f 179//1 77//1 177//1 302//1
f 174//1 303//1 176//1 76//1
f 43//1 93//1 303//1 174//1
f 93//6 14//6 166//6 303//6
f 138//1 304//1 175//1 44//1
f 1//1 137//1 304//1 138//1
f 137//1 43//1 174//1 304//1
f 94//1 305//1 123//1 15//1
f 44//1 175//1 305//1 94//1
f 175//1 76//1 173//1 305//1
f 170//1 306//1 172//1 75//1
f 31//1 81//1 306//1 170//1
f 81//1 2//1 140//1 306//1
f 166//1 307//1 171//1 72//1
f 14//6 125//6 307//6 166//6
f 125//1 31//1 170//1 307//1
f 122//1 308//1 124//1 30//1
f 72//1 171//1 308//1 122//1
f 171//1 75//1 169//1 308//1
f 169//1 309//1 168//1 74//1
f 75//1 172//1 309//1 169//1
f 172//1 46//1 96//1 309//1
f 173//1 310//1 167//1 73//1
f 76//1 176//1 310//1 173//1
f 176//1 72//1 122//1 310//1
f 177//1 311//1 130//1 36//1
f 77//1 180//1 311//1 177//1
f 180//1 71//1 121//1 311//1
f 245//1 328//1 142//1 48//1
f 80//1 248//1 328//1 245//1
f 248//1 34//1 84//1 328//1
usemtl Door
f 296//7 185//7 69//7 119//7
f 69//7 163//7 291//7 190//7
f 14//7 119//7 292//7 125//7
f 119//7 69//7 190//7 292//7
f 93//7 296//7 119//7 14//7
f 185//7 313//7 163//7 69//7
usemtl Brick
f 327//7 89//7 6//7 85//7
f 326//8 91//8 7//8 87//8
f 325//9 92//9 8//9 88//9
f 324//10 82//10 4//10 144//10
f 323//10 105//10 21//10 132//10
f 322//10 106//10 26//10 151//10
f 321//10 94//10 15//10 152//10
f 320//9 109//9 21//9 100//9
f 319//9 110//9 27//9 155//9
f 318//9 104//9 25//9 156//9
f 317//8 113//8 20//8 99//8
f 316//8 114//8 28//8 159//8
f 315//8 103//8 24//8 160//8
f 314//7 117//7 18//7 97//7
f 313//11 118//11 29//11 163//11
f 312//7 101//7 22//7 164//7
f 299//7 181//7 70//7 120//7
f 297//7 145//7 51//7 184//7
f 295//7 186//7 78//7 187//7
f 294//7 162//7 68//7 188//7
f 293//7 189//7 47//7 141//7
f 292//12 190//12 79//12 191//12
f 291//13 161//13 67//13 192//13
f 290//8 193//8 66//8 116//8
f 288//8 147//8 53//8 196//8
f 287//8 197//8 65//8 115//8
f 285//8 158//8 64//8 200//8
f 284//8 201//8 49//8 143//8
f 282//8 157//8 63//8 204//8
f 281//9 205//9 62//9 112//9
f 279//9 148//9 54//9 208//9
f 278//9 209//9 61//9 111//9
f 276//9 154//9 60//9 212//9
f 275//9 213//9 50//9 144//9
f 273//9 153//9 59//9 216//9
f 272//10 217//10 58//10 108//10
f 270//10 138//10 44//10 220//10
f 269//10 221//10 57//10 107//10
f 267//10 150//10 56//10 224//10
f 266//10 225//10 38//10 88//10
f 264//10 149//10 55//10 228//10
f 263//10 229//10 50//10 100//10
f 261//10 126//10 32//10 232//10
f 260//9 233//9 38//9 132//9
f 258//9 136//9 42//9 236//9
f 257//8 237//8 37//8 131//8
f 255//8 135//8 41//8 240//8
f 254//7 241//7 35//7 129//7
f 252//7 133//7 39//7 244//7
f 70//7 164//7 252//7 242//7
f 164//7 22//7 133//7 252//7
f 161//7 253//7 243//7 67//7
f 29//7 120//7 253//7 161//7
f 120//7 70//7 242//7 253//7
f 117//7 254//7 129//7 18//7
f 67//7 243//7 254//7 117//7
f 66//8 160//8 255//8 238//8
f 160//8 24//8 135//8 255//8
f 157//8 256//8 239//8 63//8
f 28//8 116//8 256//8 157//8
f 116//8 66//8 238//8 256//8
f 113//8 257//8 131//8 20//8
f 63//8 239//8 257//8 113//8
f 62//9 156//9 258//9 234//9
f 156//9 25//9 136//9 258//9
f 153//9 259//9 235//9 59//9
f 27//9 112//9 259//9 153//9
f 112//9 62//9 234//9 259//9
f 109//9 260//9 132//9 21//9
f 59//9 235//9 260//9 109//9
f 58//10 152//10 261//10 230//10
f 152//10 15//10 126//10 261//10
f 149//10 262//10 231//10 55//10
f 26//10 108//10 262//10 149//10
f 108//10 58//10 230//10 262//10
f 105//10 263//10 100//10 21//10
f 55//10 231//10 263//10 105//10
f 57//10 151//10 264//10 226//10
f 151//10 26//10 149//10 264//10
f 134//10 265//10 227//10 40//10
f 23//10 107//10 265//10 134//10
f 107//10 57//10 226//10 265//10
f 90//10 266//10 88//10 8//10
f 40//10 227//10 266//10 90//10
f 33//10 127//10 267//10 222//10
f 127//10 16//10 150//10 267//10
f 146//10 268//10 223//10 52//10
f 5//10 83//10 268//10 146//10
f 83//10 33//10 222//10 268//10
f 102//10 269//10 107//10 23//10
f 52//10 223//10 269//10 102//10
f 45//10 139//10 270//10 218//10
f 139//10 1//10 138//10 270//10
f 150//10 271//10 219//10 56//10
f 16//10 95//10 271//10 150//10
f 95//10 45//10 218//10 271//10
f 106//10 272//10 108//10 26//10
f 56//10 219//10 272//10 106//10
f 61//9 155//9 273//9 214//9
f 155//9 27//9 153//9 273//9
f 130//9 274//9 215//9 36//9
f 19//9 111//9 274//9 130//9
f 111//9 61//9 214//9 274//9
f 86//9 275//9 144//9 4//9
f 36//9 215//9 275//9 86//9
f 49//9 99//9 276//9 210//9
f 99//9 20//9 154//9 276//9
f 142//9 277//9 211//9 48//9
f 3//9 143//9 277//9 142//9
f 143//9 49//9 210//9 277//9
f 98//9 278//9 111//9 19//9
f 48//9 211//9 278//9 98//9
f 37//9 87//9 279//9 206//9
f 87//9 7//9 148//9 279//9
f 154//9 280//9 207//9 60//9
f 20//9 131//9 280//9 154//9
f 131//9 37//9 206//9 280//9
f 110//9 281//9 112//9 27//9
f 60//9 207//9 281//9 110//9
f 65//8 159//8 282//8 202//8
f 159//8 28//8 157//8 282//8
f 128//8 283//8 203//8 34//8
f 17//8 115//8 283//8 128//8
f 115//8 65//8 202//8 283//8
f 84//8 284//8 143//8 3//8
f 34//8 203//8 284//8 84//8
f 47//8 97//8 285//8 198//8
f 97//8 18//8 158//8 285//8
f 140//8 286//8 199//8 46//8
f 2//8 141//8 286//8 140//8
f 141//8 47//8 198//8 286//8
f 96//8 287//8 115//8 17//8
f 46//8 199//8 287//8 96//8
f 35//8 85//8 288//8 194//8
f 85//8 6//8 147//8 288//8
f 158//8 289//8 195//8 64//8
f 18//8 129//8 289//8 158//8
f 129//8 35//8 194//8 289//8
f 114//8 290//8 116//8 28//8
f 64//8 195//8 290//8 114//8
f 190//12 291//12 192//12 79//12
f 163//11 29//11 161//11 291//11
f 125//12 292//12 191//12 31//12
f 81//7 293//7 141//7 2//7
f 31//7 191//7 293//7 81//7
f 191//7 79//7 189//7 293//7
f 186//7 294//7 188//7 78//7
f 45//7 95//7 294//7 186//7
f 95//7 16//7 162//7 294//7
f 137//7 295//7 187//7 43//7
f 1//7 139//7 295//7 137//7
f 139//7 45//7 186//7 295//7
f 43//14 187//14 296//14 93//14
f 187//14 78//14 185//14 296//14
f 33//7 83//7 297//7 182//7
f 83//7 5//7 145//7 297//7
f 162//7 298//7 183//7 68//7
f 16//7 127//7 298//7 162//7
f 127//7 33//7 182//7 298//7
f 118//7 299//7 120//7 29//7
f 68//7 183//7 299//7 118//7
f 181//7 312//7 164//7 70//7
f 184//7 51//7 101//7 312//7
f 78//14 188//14 313//14 185//14
f 188//15 68//15 118//15 313//15
f 189//7 314//7 97//7 47//7
f 79//7 192//7 314//7 189//7
f 192//7 67//7 117//7 314//7
f 193//8 315//8 160//8 66//8
f 196//8 53//8 103//8 315//8
f 197//8 316//8 159//8 65//8
f 200//8 64//8 114//8 316//8
f 201//8 317//8 99//8 49//8
f 204//8 63//8 113//8 317//8
f 205//9 318//9 156//9 62//9
f 208//9 54//9 104//9 318//9
f 209//9 319//9 155//9 61//9
f 212//9 60//9 110//9 319//9
f 213//9 320//9 100//9 50//9
f 216//9 59//9 109//9 320//9
f 217//10 321//10 152//10 58//10
f 220//10 44//10 94//10 321//10
f 221//10 322//10 151//10 57//10
f 224//10 56//10 106//10 322//10
f 225//10 323//10 132//10 38//10
f 228//10 55//10 105//10 323//10
f 229//10 324//10 144//10 50//10
f 232//10 32//10 82//10 324//10
f 233//9 325//9 88//9 38//9
f 236//9 42//9 92//9 325//9
f 237//8 326//8 87//8 37//8
f 240//8 41//8 91//8 326//8
f 241//7 327//7 85//7 35//7
f 244//7 39//7 89//7 327//7
